<svg xmlns="http://www.w3.org/2000/svg" width="440" height="112" viewBox="0 0 440 112" role="img" aria-label="Education: Developer Akademie, Udemy"><title>Education: Developer Akademie, Udemy</title><style>
  .h{font:700 28px -apple-system,'Segoe UI',Helvetica,Arial,sans-serif;fill:#f0f6fc}
  .l{stroke:#3dcfb6;stroke-width:1.5}
  @media (prefers-color-scheme: light){.h{fill:#1f2328}}
</style><text class="h" x="0" y="30">Education</text><line class="l" x1="0" y1="44" x2="440" y2="44"/><g transform="translate(0,62)"><rect width="210" height="28" rx="3" fill="#FF5A4B"/>
<g fill="none" stroke="#FFFFFF" stroke-linecap="round" stroke-linejoin="round"><rect x="9" y="5.5" width="20" height="14" rx="2.5" stroke-width="2"/><polyline points="16,9.5 13,12.5 16,15.5" stroke-width="1.8"/><polyline points="22,9.5 25,12.5 22,15.5" stroke-width="1.8"/><line x1="19.5" y1="9" x2="18.5" y2="16" stroke-width="1.8"/><line x1="10" y1="23" x2="28" y2="23" stroke-width="2"/></g>
<text x="38" y="18" fill="#FFFFFF" font-family="Verdana,DejaVu Sans,sans-serif" font-size="11" font-weight="bold" letter-spacing="1">DEVELOPER AKADEMIE</text></g><g transform="translate(222,62)"><rect width="100" height="28" rx="3" fill="#A435F0"/><g transform="translate(9,4) scale(0.83)"><path fill="#fff" d="M12 0L5.81 3.573v3.574l6.189-3.574 6.191 3.574V3.573zM5.81 10.148v8.144c0 1.85.589 3.243 1.741 4.234S10.177 24 11.973 24s3.269-.482 4.448-1.474c1.179-.991 1.768-2.439 1.768-4.314v-8.064h-3.242v7.85c0 2.036-1.509 3.055-2.948 3.055-1.428 0-2.947-.991-2.947-3.027v-7.878z"/></g><text x="36" y="18" fill="#FFFFFF" font-family="Verdana,DejaVu Sans,sans-serif" font-size="11" font-weight="bold" letter-spacing="1">UDEMY</text></g></svg>
